PathFileType	4	(X/Y/Z)	 control3min.trc
DataRate	CameraRate	NumFrames	NumMarkers	Units	OrigDataRate	OrigDataStartFrame	OrigNumFrames
200	200	10	39	m	200	626	1000
Frame#	Time	C7			LSH			RSH			MAN			RASI			LASI			HIPR			HIPL			RPSI			LPSI			COX			RTHI1			RTHI2			RTHI3			RTHI4			RLKN			RMKN			RSHA1			RSHA2			RSHA3			RSHA4			RHEEL			RMET5			RMET1			RTOE			LTHI1			LTHI2			LTHI3			LTHI4			LLKN			LMKN			LSHA1			LSHA2			LSHA3			LSHA4			LHEEL			LMET5			LMET1			LTOE			
		X1	Y1	Z1	X2	Y2	Z2	X3	Y3	Z3	X4	Y4	Z4	X5	Y5	Z5	X6	Y6	Z6	X7	Y7	Z7	X8	Y8	Z8	X9	Y9	Z9	X10	Y10	Z10	X11	Y11	Z11	X12	Y12	Z12	X13	Y13	Z13	X14	Y14	Z14	X15	Y15	Z15	X16	Y16	Z16	X17	Y17	Z17	X18	Y18	Z18	X19	Y19	Z19	X20	Y20	Z20	X21	Y21	Z21	X22	Y22	Z22	X23	Y23	Z23	X24	Y24	Z24	X25	Y25	Z25	X26	Y26	Z26	X27	Y27	Z27	X28	Y28	Z28	X29	Y29	Z29	X30	Y30	Z30	X31	Y31	Z31	X32	Y32	Z32	X33	Y33	Z33	X34	Y34	Z34	X35	Y35	Z35	X36	Y36	Z36	X37	Y37	Z37	X38	Y38	Z38	X39	Y39	Z39	
626	3.1300	-0.296605	1.558781	-0.517388	-0.250676	1.547885	-0.698462	-0.260691	1.546044	-0.340649	-0.146750	1.516737	-0.523601	-0.141815	1.042266	-0.414575	-0.145286	1.050139	-0.651275	-0.213904	1.122991	-0.362412	-0.209381	1.139698	-0.690096	-0.316099	1.106973	-0.490061	-0.315206	1.112411	-0.567466	-0.316727	1.106362	-0.527901	-0.243902	0.869942	-0.337753	-0.233612	0.811730	-0.330416	-0.169300	0.821579	-0.327920	-0.172503	0.882480	-0.335441	-0.239785	0.536677	-0.352204	-0.212626	0.525640	-0.475392	-0.303804	0.384409	-0.333404	-0.322933	0.346997	-0.342675	-0.265934	0.325867	-0.345697	-0.250787	0.363265	-0.341232	-0.385380	0.160195	-0.413625	-0.252294	0.053978	-0.347194	-0.205018	0.057893	-0.411802	-0.180654	0.044965	-0.404280	-0.265255	0.850122	-0.718066	-0.243030	0.792931	-0.725997	-0.182874	0.812498	-0.739732	-0.196418	0.871174	-0.733988	-0.235045	0.554777	-0.710362	-0.211988	0.539149	-0.587022	-0.325630	0.341348	-0.713482	-0.337607	0.303573	-0.705609	-0.278155	0.288906	-0.720126	-0.274004	0.331887	-0.726274	-0.382982	0.152377	-0.646363	-0.253091	0.052425	-0.724731	-0.204974	0.055629	-0.661157	-0.180398	0.039243	-0.668941	
627	3.1350	-0.296454	1.561383	-0.517369	-0.250544	1.550700	-0.698347	-0.260520	1.548767	-0.340662	-0.146676	1.519523	-0.523533	-0.141602	1.044836	-0.414608	-0.145019	1.053092	-0.651412	-0.213621	1.125874	-0.362590	-0.209616	1.142842	-0.689896	-0.315643	1.110070	-0.490004	-0.314827	1.115559	-0.567379	-0.316251	1.109519	-0.527814	-0.243876	0.872563	-0.337844	-0.233702	0.814320	-0.330630	-0.169364	0.824010	-0.328197	-0.172440	0.884953	-0.335606	-0.240070	0.539051	-0.352623	-0.212956	0.528073	-0.475781	-0.303608	0.386503	-0.333667	-0.322629	0.349055	-0.342963	-0.265549	0.328052	-0.346057	-0.250436	0.365497	-0.341627	-0.384602	0.162028	-0.414099	-0.251356	0.056461	-0.347223	-0.203987	0.060358	-0.411468	-0.179594	0.047560	-0.403644	-0.265444	0.853216	-0.717964	-0.243326	0.795982	-0.725834	-0.183096	0.815426	-0.739440	-0.196526	0.874136	-0.733751	-0.235456	0.557454	-0.710140	-0.212795	0.541494	-0.586775	-0.324866	0.343414	-0.713816	-0.336628	0.305522	-0.706026	-0.277060	0.291167	-0.720301	-0.273151	0.334232	-0.726449	-0.381641	0.154560	-0.647001	-0.251915	0.054512	-0.725064	-0.204042	0.057111	-0.661870	-0.179697	0.040442	-0.669943	
628	3.1400	-0.296289	1.563714	-0.517336	-0.250425	1.553226	-0.698249	-0.260308	1.551193	-0.340648	-0.146560	1.522000	-0.523478	-0.141420	1.047127	-0.414670	-0.144809	1.055701	-0.651532	-0.213378	1.128426	-0.362757	-0.209833	1.145545	-0.689731	-0.315260	1.112861	-0.489949	-0.314516	1.118398	-0.567302	-0.315855	1.112366	-0.527733	-0.243795	0.874911	-0.337869	-0.233722	0.816635	-0.330824	-0.169363	0.826196	-0.328503	-0.172340	0.887170	-0.335802	-0.240190	0.541169	-0.353040	-0.213114	0.530244	-0.476140	-0.303429	0.388436	-0.333952	-0.322393	0.350928	-0.343310	-0.265265	0.330014	-0.346499	-0.250178	0.367474	-0.342026	-0.384002	0.163602	-0.414715	-0.250416	0.058977	-0.347222	-0.202932	0.062973	-0.411200	-0.178446	0.050400	-0.403161	-0.265541	0.855981	-0.717928	-0.243534	0.798698	-0.725693	-0.183218	0.817994	-0.739131	-0.196533	0.876739	-0.733527	-0.235668	0.559846	-0.709935	-0.213515	0.543663	-0.586500	-0.324149	0.345301	-0.714096	-0.335779	0.307325	-0.706373	-0.276106	0.293218	-0.720391	-0.272348	0.336324	-0.726532	-0.380545	0.156442	-0.647437	-0.250780	0.056708	-0.725466	-0.203033	0.058882	-0.662625	-0.178834	0.042033	-0.670994	
629	3.1450	-0.296116	1.565789	-0.517301	-0.250321	1.555459	-0.698169	-0.260056	1.553315	-0.340607	-0.146400	1.524171	-0.523440	-0.141267	1.049144	-0.414757	-0.144659	1.057959	-0.651632	-0.213166	1.130639	-0.362904	-0.210011	1.147817	-0.689605	-0.314949	1.115336	-0.489900	-0.314265	1.120921	-0.567233	-0.315534	1.114890	-0.527660	-0.243683	0.876967	-0.337913	-0.233670	0.818677	-0.330984	-0.169296	0.828134	-0.328834	-0.172214	0.889148	-0.336032	-0.240174	0.543036	-0.353454	-0.213124	0.532173	-0.476480	-0.303274	0.390226	-0.334273	-0.322235	0.352671	-0.343721	-0.265066	0.331784	-0.346999	-0.250008	0.369235	-0.342417	-0.383523	0.164930	-0.415420	-0.249464	0.061439	-0.347242	-0.201866	0.065621	-0.410995	-0.177241	0.053328	-0.402810	-0.265532	0.858401	-0.717963	-0.243634	0.801058	-0.725583	-0.183223	0.820192	-0.738818	-0.196422	0.878970	-0.733334	-0.235687	0.561952	-0.709752	-0.214106	0.545662	-0.586210	-0.323488	0.347041	-0.714306	-0.335063	0.309030	-0.706621	-0.275283	0.295055	-0.720381	-0.271619	0.338189	-0.726533	-0.379670	0.158046	-0.647681	-0.249701	0.058945	-0.725906	-0.201971	0.060895	-0.663398	-0.177841	0.043979	-0.672037	
630	3.1500	-0.295927	1.567582	-0.517258	-0.250219	1.557394	-0.698108	-0.259767	1.555130	-0.340539	-0.146203	1.526044	-0.523420	-0.141138	1.050887	-0.414867	-0.144571	1.059863	-0.651712	-0.212979	1.132516	-0.363028	-0.210126	1.149683	-0.689520	-0.314708	1.117501	-0.489856	-0.314072	1.123130	-0.567179	-0.315286	1.117095	-0.527599	-0.243528	0.878739	-0.337925	-0.233547	0.820454	-0.331110	-0.169157	0.829842	-0.329185	-0.172043	0.890868	-0.336283	-0.240061	0.544671	-0.353862	-0.213016	0.533879	-0.476807	-0.303142	0.391851	-0.334660	-0.322131	0.354300	-0.344212	-0.264936	0.333375	-0.347529	-0.249907	0.370799	-0.342809	-0.383110	0.166054	-0.416166	-0.248514	0.063748	-0.347322	-0.200805	0.068163	-0.410873	-0.176045	0.056155	-0.402565	-0.265405	0.860458	-0.718080	-0.243612	0.803052	-0.725510	-0.183100	0.822016	-0.738515	-0.196190	0.880834	-0.733185	-0.235519	0.563775	-0.709594	-0.214523	0.547492	-0.585931	-0.322893	0.348657	-0.714440	-0.334498	0.310616	-0.706788	-0.274637	0.296687	-0.720302	-0.270968	0.339859	-0.726480	-0.378973	0.159388	-0.647774	-0.248677	0.061155	-0.726337	-0.200890	0.063061	-0.664128	-0.176760	0.046175	-0.672994	
631	3.1550	-0.295720	1.569100	-0.517214	-0.250128	1.559042	-0.698071	-0.259449	1.556644	-0.340441	-0.145973	1.527624	-0.523420	-0.141033	1.052366	-0.414992	-0.144540	1.061420	-0.651772	-0.212812	1.134062	-0.363122	-0.210162	1.151164	-0.689473	-0.314533	1.119347	-0.489821	-0.313932	1.125016	-0.567146	-0.315108	1.118984	-0.527555	-0.243300	0.880245	-0.337811	-0.233351	0.821968	-0.331199	-0.168949	0.831311	-0.329548	-0.171837	0.892339	-0.336554	-0.239893	0.546093	-0.354258	-0.212823	0.535374	-0.477128	-0.303033	0.393293	-0.335127	-0.322043	0.355755	-0.344850	-0.264837	0.334801	-0.348069	-0.249852	0.372192	-0.343206	-0.382720	0.166991	-0.416914	-0.247573	0.065822	-0.347493	-0.199754	0.070520	-0.410856	-0.174908	0.058754	-0.402418	-0.265165	0.862148	-0.718271	-0.243459	0.804682	-0.725489	-0.182849	0.823482	-0.738237	-0.195845	0.882331	-0.733084	-0.235185	0.565321	-0.709465	-0.214745	0.549146	-0.585680	-0.322368	0.350148	-0.714492	-0.334028	0.312132	-0.706874	-0.274136	0.298171	-0.720204	-0.270403	0.341361	-0.726387	-0.378430	0.160477	-0.647761	-0.247696	0.063278	-0.726710	-0.199836	0.065268	-0.664744	-0.175651	0.048494	-0.673792	
632	3.1600	-0.295506	1.570389	-0.517171	-0.250043	1.560413	-0.698059	-0.259101	1.557861	-0.340312	-0.145718	1.528919	-0.523442	-0.140949	1.053586	-0.415124	-0.144558	1.062643	-0.651813	-0.212662	1.135291	-0.363181	-0.210128	1.152293	-0.689464	-0.314417	1.120870	-0.489802	-0.313845	1.126576	-0.567141	-0.314997	1.120555	-0.527549	-0.243034	0.881488	-0.337671	-0.233089	0.823214	-0.331256	-0.168672	0.832549	-0.329916	-0.171612	0.893593	-0.336849	-0.239697	0.547316	-0.354645	-0.212583	0.536672	-0.477446	-0.302934	0.394567	-0.335655	-0.321950	0.357101	-0.345532	-0.264747	0.336071	-0.348603	-0.249792	0.373432	-0.343622	-0.382321	0.167752	-0.417636	-0.246652	0.067603	-0.347771	-0.198708	0.072649	-0.410974	-0.173846	0.061052	-0.402387	-0.264815	0.863475	-0.718538	-0.243176	0.805956	-0.725523	-0.182473	0.824605	-0.737990	-0.195395	0.883481	-0.733028	-0.234722	0.566601	-0.709364	-0.214760	0.550606	-0.585475	-0.321907	0.351518	-0.714462	-0.333639	0.313552	-0.706864	-0.273745	0.299525	-0.720090	-0.269921	0.342706	-0.726277	-0.378020	0.161340	-0.647690	-0.246742	0.065256	-0.726971	-0.198837	0.067420	-0.665186	-0.174561	0.050804	-0.674366	
633	3.1650	-0.295274	1.571431	-0.517128	-0.249956	1.561506	-0.698078	-0.258720	1.558782	-0.340149	-0.145441	1.529935	-0.523481	-0.140884	1.054554	-0.415254	-0.144612	1.063556	-0.651837	-0.212517	1.136215	-0.363205	-0.210036	1.153095	-0.689491	-0.314352	1.122078	-0.489804	-0.313803	1.127821	-0.567168	-0.314945	1.121808	-0.527568	-0.242747	0.882458	-0.337549	-0.232764	0.824201	-0.331288	-0.168337	0.833553	-0.330284	-0.171357	0.894626	-0.337154	-0.239490	0.548330	-0.355024	-0.212322	0.537776	-0.477771	-0.302848	0.395664	-0.336229	-0.321858	0.358218	-0.346207	-0.264645	0.337178	-0.349116	-0.249723	0.374508	-0.344050	-0.381909	0.168339	-0.418297	-0.245743	0.069069	-0.348165	-0.197678	0.074516	-0.411251	-0.172857	0.063025	-0.402507	-0.264378	0.864457	-0.718906	-0.242777	0.806893	-0.725650	-0.181982	0.825417	-0.737782	-0.194849	0.884321	-0.733005	-0.234166	0.567636	-0.709293	-0.214585	0.551849	-0.585322	-0.321509	0.352751	-0.714362	-0.333315	0.314795	-0.706774	-0.273424	0.300722	-0.719981	-0.269522	0.343890	-0.726162	-0.377711	0.162019	-0.647623	-0.245800	0.067024	-0.727080	-0.197911	0.069433	-0.665414	-0.173523	0.053006	-0.674674	
634	3.1700	-0.295016	1.572225	-0.517079	-0.249854	1.562320	-0.698127	-0.258311	1.559417	-0.339949	-0.145148	1.530680	-0.523535	-0.140838	1.055276	-0.415377	-0.144691	1.064184	-0.651846	-0.212380	1.136858	-0.363202	-0.209893	1.153602	-0.689549	-0.314335	1.122978	-0.489829	-0.313804	1.128752	-0.567228	-0.314947	1.122748	-0.527616	-0.242430	0.883184	-0.337413	-0.232389	0.824944	-0.331306	-0.167956	0.834331	-0.330648	-0.171063	0.895411	-0.337454	-0.239285	0.549145	-0.355394	-0.212071	0.538679	-0.478104	-0.302766	0.396559	-0.336845	-0.321759	0.359158	-0.346889	-0.264529	0.338089	-0.349595	-0.249646	0.375399	-0.344490	-0.381486	0.168758	-0.418897	-0.244838	0.070211	-0.348678	-0.196672	0.076103	-0.411702	-0.171944	0.064667	-0.402806	-0.263871	0.865120	-0.719374	-0.242275	0.807526	-0.725868	-0.181384	0.825946	-0.737609	-0.194233	0.884874	-0.733005	-0.233549	0.568437	-0.709250	-0.214256	0.552866	-0.585223	-0.321175	0.353812	-0.714213	-0.333031	0.315872	-0.706630	-0.273175	0.301746	-0.719882	-0.269195	0.344902	-0.726051	-0.377489	0.162537	-0.647614	-0.244856	0.068548	-0.727019	-0.197070	0.071250	-0.665407	-0.172554	0.055026	-0.674704	
635	3.1750	-0.294726	1.572819	-0.517026	-0.249741	1.562870	-0.698209	-0.257873	1.559781	-0.339715	-0.144843	1.531162	-0.523600	-0.140808	1.055755	-0.415491	-0.144782	1.064550	-0.651839	-0.212249	1.137233	-0.363177	-0.209712	1.153836	-0.689635	-0.314358	1.123570	-0.489883	-0.313846	1.129372	-0.567328	-0.315000	1.123380	-0.527692	-0.242099	0.883685	-0.337288	-0.231971	0.825439	-0.331317	-0.167540	0.834874	-0.331013	-0.170742	0.895970	-0.337751	-0.239069	0.549740	-0.355748	-0.211851	0.539381	-0.478451	-0.302682	0.397233	-0.337463	-0.321641	0.359856	-0.347536	-0.264393	0.338789	-0.350054	-0.249559	0.376092	-0.344936	-0.381054	0.168984	-0.419434	-0.243914	0.071050	-0.349311	-0.195716	0.077400	-0.412321	-0.171074	0.066016	-0.403320	-0.263313	0.865491	-0.719929	-0.241685	0.807879	-0.726175	-0.180697	0.826231	-0.737469	-0.193559	0.885181	-0.733017	-0.232901	0.569011	-0.709236	-0.213830	0.553656	-0.585167	-0.320901	0.354673	-0.714037	-0.332774	0.316767	-0.706436	-0.272965	0.302584	-0.719788	-0.268936	0.345731	-0.725948	-0.377325	0.162886	-0.647667	-0.243897	0.069814	-0.726794	-0.196304	0.072848	-0.665168	-0.171651	0.056837	-0.674478	
